# Blender v2.79 (sub 0) OBJ File: 'cylinder.blend'
# www.blender.org
o Cone
v 0.000000 -0.016546 -0.300000
v 0.058527 -0.016546 -0.294236
v 0.114805 -0.016546 -0.277164
v 0.166671 -0.016546 -0.249441
v 0.212132 -0.016546 -0.212132
v 0.249441 -0.016546 -0.166671
v 0.277164 -0.016546 -0.114805
v 0.294236 -0.016546 -0.058527
v 0.300000 -0.016546 -0.000000
v 0.294236 -0.016546 0.058527
v 0.277164 -0.016546 0.114805
v 0.249441 -0.016546 0.166671
v 0.212132 -0.016546 0.212132
v 0.166671 -0.016546 0.249441
v 0.114805 -0.016546 0.277164
v 0.058527 -0.016546 0.294236
v -0.000000 -0.016546 0.300000
v -0.058527 -0.016546 0.294236
v -0.114805 -0.016546 0.277164
v -0.166671 -0.016546 0.249441
v -0.212132 -0.016546 0.212132
v -0.249441 -0.016546 0.166671
v -0.277164 -0.016546 0.114805
v -0.294236 -0.016546 0.058527
v -0.300000 -0.016546 -0.000000
v -0.294236 -0.016546 -0.058527
v -0.277164 -0.016546 -0.114805
v -0.249441 -0.016546 -0.166671
v -0.212132 -0.016546 -0.212132
v -0.166671 -0.016546 -0.249441
v -0.114805 -0.016546 -0.277164
v -0.058527 -0.016546 -0.294236
v 0.013695 4.439570 0.068850
v -0.000000 4.439570 0.070199
v 0.026864 4.439570 -0.064855
v 0.039000 4.439570 -0.058368
v 0.013695 4.439570 -0.068850
v 0.000000 4.439570 -0.070199
v 0.026864 4.439570 0.064855
v -0.013695 4.439570 -0.068850
v -0.068850 4.439570 0.013695
v -0.070199 4.439570 -0.000000
v -0.039000 4.439570 0.058368
v -0.049638 4.439570 0.049638
v 0.039000 4.439570 0.058368
v -0.013695 4.439570 0.068850
v -0.064855 4.439570 0.026864
v -0.026864 4.439570 0.064855
v -0.058368 4.439570 0.039000
v 0.058368 4.439570 -0.039000
v 0.064855 4.439570 -0.026864
v 0.068850 4.439570 -0.013695
v 0.049638 4.439570 0.049638
v 0.070199 4.439570 -0.000000
v 0.068850 4.439570 0.013695
v 0.049638 4.439570 -0.049638
v 0.064855 4.439570 0.026864
v -0.049638 4.439570 -0.049638
v -0.039000 4.439570 -0.058368
v -0.058368 4.439570 -0.039000
v -0.068850 4.439570 -0.013695
v -0.026864 4.439570 -0.064855
v -0.064855 4.439570 -0.026864
v 0.058368 4.439570 0.039000
vt 1.000000 0.000000
vt 0.000000 1.000000
vt 0.000000 0.000000
vt 1.000000 0.000000
vt 0.000000 1.000000
vt 0.000000 0.000000
vt 0.000000 0.000000
vt 1.000000 1.000000
vt 0.000000 1.000000
vt 1.000000 0.000000
vt 0.000000 1.000000
vt 0.000000 0.000000
vt 1.000000 0.000000
vt 0.000000 1.000000
vt 0.000000 0.000000
vt 1.000000 0.000000
vt 0.000000 1.000000
vt 0.000000 0.000000
vt 1.000000 0.000000
vt 0.000000 1.000000
vt 0.000000 0.000000
vt 1.000000 0.000000
vt 0.000000 1.000000
vt 0.000000 0.000000
vt 1.000000 0.000000
vt 0.000000 1.000000
vt 0.000000 0.000000
vt 1.000000 0.000000
vt 0.000000 1.000000
vt 0.000000 0.000000
vt 0.000000 0.000000
vt 1.000000 1.000000
vt 0.000000 1.000000
vt 1.000000 0.000000
vt 0.000000 1.000000
vt 0.000000 0.000000
vt 1.000000 0.000000
vt 0.000000 1.000000
vt 0.000000 0.000000
vt 1.000000 0.000000
vt 0.000000 1.000000
vt 0.000000 0.000000
vt 1.000000 0.000000
vt 0.000000 1.000000
vt 0.000000 0.000000
vt 1.000000 0.000000
vt 0.000000 1.000000
vt 0.000000 0.000000
vt 1.000000 0.000000
vt 0.000000 1.000000
vt 0.000000 0.000000
vt 1.000000 0.000000
vt 0.000000 1.000000
vt 0.000000 0.000000
vt 1.000000 0.000000
vt 0.000000 1.000000
vt 0.000000 0.000000
vt 1.000000 0.000000
vt 0.000000 1.000000
vt 0.000000 0.000000
vt 1.000000 0.000000
vt 0.000000 1.000000
vt 0.000000 0.000000
vt 1.000000 0.000000
vt 0.000000 1.000000
vt 0.000000 0.000000
vt 0.000000 0.000000
vt 1.000000 1.000000
vt 0.000000 1.000000
vt 1.000000 0.000000
vt 0.000000 1.000000
vt 0.000000 0.000000
vt 1.000000 0.000000
vt 0.000000 1.000000
vt 0.000000 0.000000
vt 1.000000 0.000000
vt 0.000000 1.000000
vt 0.000000 0.000000
vt 1.000000 0.000000
vt 0.000000 1.000000
vt 0.000000 0.000000
vt 1.000000 0.000000
vt 0.000000 1.000000
vt 0.000000 0.000000
vt 1.000000 0.000000
vt 0.000000 1.000000
vt 0.000000 0.000000
vt 1.000000 0.000000
vt 0.000000 1.000000
vt 0.000000 0.000000
vt 1.000000 0.000000
vt 0.000000 1.000000
vt 0.000000 0.000000
vt 0.000000 0.000000
vt 1.000000 1.000000
vt 0.000000 1.000000
vt 0.990393 0.597545
vt 0.597545 0.009607
vt 0.009607 0.402455
vt 0.990393 0.597545
vt 0.597545 0.009607
vt 0.009607 0.402455
vt 1.000000 1.000000
vt 1.000000 1.000000
vt 1.000000 0.000000
vt 1.000000 1.000000
vt 1.000000 1.000000
vt 1.000000 1.000000
vt 1.000000 1.000000
vt 1.000000 1.000000
vt 1.000000 1.000000
vt 1.000000 1.000000
vt 1.000000 0.000000
vt 1.000000 1.000000
vt 1.000000 1.000000
vt 1.000000 1.000000
vt 1.000000 1.000000
vt 1.000000 1.000000
vt 1.000000 1.000000
vt 1.000000 1.000000
vt 1.000000 1.000000
vt 1.000000 1.000000
vt 1.000000 1.000000
vt 1.000000 1.000000
vt 1.000000 0.000000
vt 1.000000 1.000000
vt 1.000000 1.000000
vt 1.000000 1.000000
vt 1.000000 1.000000
vt 1.000000 1.000000
vt 1.000000 1.000000
vt 1.000000 1.000000
vt 1.000000 1.000000
vt 1.000000 0.000000
vt 0.402456 0.990393
vt 0.500000 1.000000
vt 0.597545 0.990393
vt 0.691342 0.961940
vt 0.777785 0.915735
vt 0.853553 0.853553
vt 0.915735 0.777785
vt 0.961940 0.691342
vt 1.000000 0.500000
vt 0.990393 0.402455
vt 0.961940 0.308658
vt 0.915735 0.222215
vt 0.853553 0.146447
vt 0.773817 0.080297
vt 0.691342 0.038060
vt 0.500000 0.000000
vt 0.402455 0.009607
vt 0.308658 0.038060
vt 0.222215 0.084265
vt 0.146446 0.146447
vt 0.084265 0.222215
vt 0.038060 0.308659
vt 0.000000 0.500000
vt 0.009607 0.597546
vt 0.038060 0.691342
vt 0.084266 0.777786
vt 0.146447 0.853554
vt 0.222215 0.915735
vt 0.308659 0.961940
vt 0.402456 0.990393
vt 0.500000 1.000000
vt 0.597545 0.990393
vt 0.691342 0.961940
vt 0.777785 0.915735
vt 0.853553 0.853553
vt 0.915735 0.777785
vt 0.961940 0.691342
vt 1.000000 0.500000
vt 0.990393 0.402455
vt 0.961940 0.308658
vt 0.915735 0.222215
vt 0.853553 0.146447
vt 0.777785 0.084265
vt 0.691342 0.038060
vt 0.500000 0.000000
vt 0.402455 0.009607
vt 0.308658 0.038060
vt 0.222215 0.084265
vt 0.146446 0.146447
vt 0.084265 0.222215
vt 0.038060 0.308659
vt 0.000000 0.500000
vt 0.084266 0.777786
vt 0.009607 0.597546
vt 0.038060 0.691342
vt 0.146447 0.853554
vt 0.222215 0.915735
vt 0.308659 0.961940
vn 0.0979 0.0513 -0.9939
vn 0.2899 0.0513 -0.9557
vn 0.4708 0.0513 -0.8808
vn 0.6336 0.0513 -0.7720
vn 0.7720 0.0513 -0.6336
vn 0.8808 0.0513 -0.4708
vn 0.9557 0.0513 -0.2899
vn 0.9939 0.0513 -0.0979
vn 0.9939 0.0513 0.0979
vn 0.9557 0.0513 0.2899
vn 0.8808 0.0513 0.4708
vn 0.7720 0.0513 0.6336
vn 0.6336 0.0513 0.7720
vn 0.4708 0.0513 0.8808
vn 0.2899 0.0513 0.9557
vn 0.0979 0.0513 0.9939
vn -0.0979 0.0513 0.9939
vn -0.2899 0.0513 0.9557
vn -0.4708 0.0513 0.8808
vn -0.6336 0.0513 0.7720
vn -0.7720 0.0513 0.6336
vn -0.8808 0.0513 0.4708
vn -0.9557 0.0513 0.2899
vn -0.9939 0.0513 0.0979
vn -0.9939 0.0513 -0.0979
vn -0.9557 0.0513 -0.2899
vn -0.8808 0.0513 -0.4708
vn -0.7720 0.0513 -0.6336
vn -0.6336 0.0513 -0.7720
vn -0.4708 0.0513 -0.8808
vn -0.2899 0.0513 -0.9557
vn -0.0979 0.0513 -0.9939
vn 0.0000 -1.0000 -0.0000
vn 0.0000 1.0000 0.0000
vn -0.0001 1.0000 0.0000
vn 0.0000 1.0000 0.0001
vn 0.0000 1.0000 -0.0002
vn 0.0000 1.0000 0.0002
vn -0.0000 1.0000 -0.0001
vn -0.0000 1.0000 -0.0004
vn 0.0000 1.0000 0.0004
s off
f 38/1/1 2/2/1 1/3/1
f 37/4/2 3/5/2 2/6/2
f 3/7/3 36/8/3 4/9/3
f 36/10/4 5/11/4 4/12/4
f 56/13/5 6/14/5 5/15/5
f 50/16/6 7/17/6 6/18/6
f 51/19/7 8/20/7 7/21/7
f 52/22/8 9/23/8 8/24/8
f 54/25/9 10/26/9 9/27/9
f 55/28/10 11/29/10 10/30/10
f 11/31/11 64/32/11 12/33/11
f 64/34/12 13/35/12 12/36/12
f 53/37/13 14/38/13 13/39/13
f 45/40/14 15/41/14 14/42/14
f 39/43/15 16/44/15 15/45/15
f 33/46/16 17/47/16 16/48/16
f 34/49/17 18/50/17 17/51/17
f 46/52/18 19/53/18 18/54/18
f 48/55/19 20/56/19 19/57/19
f 43/58/20 21/59/20 20/60/20
f 44/61/21 22/62/21 21/63/21
f 49/64/22 23/65/22 22/66/22
f 23/67/23 41/68/23 24/69/23
f 41/70/24 25/71/24 24/72/24
f 42/73/25 26/74/25 25/75/25
f 61/76/26 27/77/26 26/78/26
f 63/79/27 28/80/27 27/81/27
f 60/82/28 29/83/28 28/84/28
f 58/85/29 30/86/29 29/87/29
f 59/88/30 31/89/30 30/90/30
f 62/91/31 32/92/31 31/93/31
f 32/94/32 38/95/32 1/96/32
f 8/97/33 16/98/33 24/99/33
f 46/100/34 55/101/34 37/102/34
f 38/1/1 37/103/1 2/2/1
f 37/4/2 35/104/2 3/5/2
f 3/7/3 35/105/3 36/8/3
f 36/10/4 56/106/4 5/11/4
f 56/13/5 50/107/5 6/14/5
f 50/16/6 51/108/6 7/17/6
f 51/19/7 52/109/7 8/20/7
f 52/22/8 54/110/8 9/23/8
f 54/25/9 55/111/9 10/26/9
f 55/28/10 57/112/10 11/29/10
f 11/31/11 57/113/11 64/32/11
f 64/34/12 53/114/12 13/35/12
f 53/37/13 45/115/13 14/38/13
f 45/40/14 39/116/14 15/41/14
f 39/43/15 33/117/15 16/44/15
f 33/46/16 34/118/16 17/47/16
f 34/49/17 46/119/17 18/50/17
f 46/52/18 48/120/18 19/53/18
f 48/55/19 43/121/19 20/56/19
f 43/58/20 44/122/20 21/59/20
f 44/61/21 49/123/21 22/62/21
f 49/64/22 47/124/22 23/65/22
f 23/67/23 47/125/23 41/68/23
f 41/70/24 42/126/24 25/71/24
f 42/73/25 61/127/25 26/74/25
f 61/76/26 63/128/26 27/77/26
f 63/79/27 60/129/27 28/80/27
f 60/82/28 58/130/28 29/83/28
f 58/85/29 59/131/29 30/86/29
f 59/88/30 62/132/30 31/89/30
f 62/91/31 40/133/31 32/92/31
f 32/94/32 40/134/32 38/95/32
f 32/135/33 1/136/33 2/137/33
f 2/137/33 3/138/33 4/139/33
f 4/139/33 5/140/33 6/141/33
f 6/141/33 7/142/33 4/139/33
f 7/142/33 8/97/33 4/139/33
f 8/97/33 9/143/33 10/144/33
f 10/144/33 11/145/33 8/97/33
f 11/145/33 12/146/33 8/97/33
f 12/146/33 13/147/33 16/98/33
f 13/147/33 14/148/33 16/98/33
f 14/148/33 15/149/33 16/98/33
f 16/98/33 17/150/33 18/151/33
f 18/151/33 19/152/33 20/153/33
f 20/153/33 21/154/33 22/155/33
f 22/155/33 23/156/33 24/99/33
f 24/99/33 25/157/33 26/158/33
f 26/158/33 27/159/33 28/160/33
f 28/160/33 29/161/33 32/135/33
f 29/161/33 30/162/33 32/135/33
f 30/162/33 31/163/33 32/135/33
f 32/135/33 2/137/33 4/139/33
f 16/98/33 18/151/33 24/99/33
f 18/151/33 20/153/33 24/99/33
f 20/153/33 22/155/33 24/99/33
f 24/99/33 26/158/33 32/135/33
f 26/158/33 28/160/33 32/135/33
f 32/135/33 4/139/33 8/97/33
f 8/97/33 12/146/33 16/98/33
f 32/135/33 8/97/33 24/99/33
f 61/164/34 42/165/34 41/166/34
f 41/166/35 47/167/35 61/164/35
f 47/167/34 49/168/34 61/164/34
f 49/168/34 44/169/34 43/170/34
f 43/170/34 48/171/34 49/168/34
f 48/171/36 46/100/36 49/168/36
f 46/100/37 34/172/37 33/173/37
f 33/173/34 39/174/34 45/175/34
f 45/175/34 53/176/34 64/177/34
f 64/177/34 57/178/34 45/175/34
f 57/178/34 55/101/34 45/175/34
f 55/101/34 54/179/34 52/180/34
f 52/180/34 51/181/34 55/101/34
f 51/181/34 50/182/34 55/101/34
f 50/182/38 56/183/38 36/184/38
f 36/184/38 35/185/38 37/102/38
f 37/102/39 38/186/39 59/187/39
f 38/186/40 40/188/40 59/187/40
f 40/188/41 62/189/41 59/187/41
f 59/187/34 58/190/34 60/191/34
f 60/191/39 63/192/39 61/164/39
f 46/100/39 33/173/39 45/175/39
f 50/182/34 36/184/34 55/101/34
f 36/184/34 37/102/34 55/101/34
f 59/187/34 60/191/34 37/102/34
f 60/191/34 61/164/34 37/102/34
f 61/164/34 49/168/34 46/100/34
f 46/100/34 45/175/34 55/101/34
f 61/164/34 46/100/34 37/102/34
