mtllib leaf.mtl
o level
v -10.261205 1.734657 5.099010
v -10.479925 0.399246 5.135951
v -9.369528 0.000000 4.923531
v -7.620600 5.540665 4.856779
v -5.107618 16.422970 3.759818
v -3.015705 21.032904 3.046980
v -3.779340 16.491821 3.900873
v -5.470334 11.572063 4.462159
v -4.615181 19.856176 3.162848
v -16.587742 18.804554 -0.513009
v 24.080505 30.185602 2.561261
v 12.187291 19.665163 2.710711
v -1.965761 20.786896 3.134721
v 5.083688 17.361668 3.212805
v 1.603883 18.129919 3.551592
v -0.595501 19.051819 3.507512
v -1.365013 19.824692 3.353022
v 0.346972 18.587511 3.562087
v 2.830987 17.651333 3.489039
v 3.994701 17.195000 3.378209
v 10.031567 18.884737 2.731702
v 7.830084 17.997257 2.868560
v 6.406509 17.357891 3.029768
v 23.101089 28.525253 2.631368
v 22.830734 26.255760 2.690141
v 22.791691 24.078205 2.753114
v 18.102413 21.748680 2.887872
v 14.290959 20.351131 2.758151
v 21.344185 22.905256 2.855546
v 38.610130 51.460312 1.068838
v 38.229782 48.446495 0.303105
v 39.254120 44.831512 -0.640209
v 25.699715 31.696077 2.389979
v 29.147194 34.440376 1.823236
v 27.639236 33.153656 2.106188
v 33.915813 37.944527 0.654905
v 32.419193 36.727921 1.060441
v 31.077057 35.685532 1.399227
v 37.692001 40.884037 -0.349701
v 35.495140 39.156097 0.220821
v 39.243202 42.677048 -0.717454
v -27.805481 29.688126 -1.141883
v -41.999252 60.312004 -2.611635
v -43.162964 62.281334 -1.468492
v -24.452881 61.809464 -0.750198
v -22.748871 62.144474 -0.321991
v -21.097759 62.858990 0.056678
v -19.695175 63.500877 0.307724
v -18.341286 64.467285 0.467252
v 17.969334 63.366539 1.870677
v 19.372337 62.578560 2.577217
v 20.771984 62.367393 3.151517
v 33.760483 63.283836 4.682564
v 40.228077 64.343857 3.558732
v 39.742355 57.111794 2.646485
v 39.437992 54.391842 1.818200
v 42.838036 65.453415 3.219946
v 41.997574 60.435848 2.764871
v 45.819942 64.036980 2.465967
v 45.124317 63.183502 2.470584
v 46.826653 64.976517 2.409293
v 49.594036 66.704872 2.139355
v 48.530659 65.646530 2.162864
v 49.477329 65.995392 2.030625
v 46.116753 66.420654 2.772429
v 47.034874 67.076401 2.687627
v 45.156639 66.400925 2.934476
v 35.717636 63.746048 4.338320
v 37.841038 64.042435 3.964689
v 22.591862 62.515587 3.740510
v 31.663113 63.143623 4.880293
v 24.393269 62.911049 4.151504
v 25.768143 63.456383 4.297178
v 29.862549 63.316582 4.840832
v 27.767700 63.649910 4.565437
v 16.759861 64.412704 1.238863
v -2.560211 87.605110 -1.274537
v -2.098001 88.941360 -1.578480
v 15.947949 65.510513 0.798902
v -1.905728 89.689468 -1.722474
v -1.746200 91.374588 -1.855554
v 2.347786 90.264191 -1.989475
v 3.966573 88.160934 -1.729612
v 8.949297 82.431793 -0.684285
v 10.707881 81.438095 -0.352215
v 15.781284 66.863976 0.518469
v 15.015552 76.581322 -0.036520
v 15.628054 72.914703 -0.091514
v 15.826623 70.765274 0.031489
v 15.858530 68.845901 0.235936
v 15.845516 71.843346 -0.036100
v 15.427384 75.457489 -0.068425
v 15.668356 74.187141 -0.091514
v 12.910205 80.088829 -0.016788
v 14.201540 78.756775 0.057099
v 14.625547 77.965431 0.034428
v 13.615485 79.588417 0.054160
v 11.462279 81.006958 -0.222075
v 12.306937 80.711411 -0.073881
v 10.010158 82.040108 -0.469763
v 4.777226 87.691162 -1.582259
v 7.458553 84.694565 -0.968917
v 8.578606 83.002731 -0.746838
v 8.042929 84.060234 -0.844232
v 8.390531 83.426743 -0.777904
v 5.453959 87.331390 -1.446240
v 6.498447 86.097992 -1.192675
v 7.104653 85.378021 -1.049938
v 6.037916 86.692017 -1.305605
v 2.840643 89.633636 -1.936159
v 3.367085 89.019867 -1.858072
v -1.663497 93.270027 -1.800980
v 1.998505 90.740662 -2.013821
v 1.079121 92.662552 -1.979818
v 1.398177 92.071472 -2.004589
v 1.709675 91.390121 -2.018021
v -1.820087 99.114616 -0.880336
v 0.150501 95.496696 -1.680912
v 0.436812 94.988724 -1.752701
v 0.828494 93.683533 -1.898793
v 0.995579 93.145760 -1.944554
v 0.665188 94.278824 -1.837922
v -0.486350 98.759033 -1.122146
v 0.253774 96.907669 -1.474365
v 0.236982 96.225067 -1.578059
v -0.053106 97.753586 -1.325755
v -1.269296 100.000000 -0.798474
v -0.815062 99.926949 -0.877397
v -1.612700 99.820740 -0.776642
v -1.943091 96.683075 -1.317779
v -1.896492 98.317398 -1.023489
v -1.988011 97.657875 -1.134742
v -1.821346 95.117607 -1.579320
v -1.904049 95.925743 -1.448758
v -1.810431 94.166321 -1.698544
v -1.726889 92.343925 -1.845481
v -1.828483 90.515228 -1.810633
v -2.328057 88.300735 -1.431967
v -17.622574 65.757355 0.571785
v -3.691180 86.414948 -0.795115
v -3.155082 86.991348 -1.031469
v -7.356540 82.996429 0.898818
v -6.938829 83.600540 0.688494
v -6.767127 84.279373 0.555834
v -4.340206 86.068192 -0.543648
v -5.773017 85.369202 0.051222
v -5.063538 85.718491 -0.251039
v -6.524057 84.814209 0.403024
v -15.751479 77.022537 2.902151
v -8.024458 82.524147 1.183447
v -12.279652 80.448608 2.598208
v -9.797734 81.682434 1.862281
v -9.020666 82.124489 1.573032
v -11.468578 80.899063 2.390823
v -10.669260 81.330627 2.156149
v -15.403877 78.048134 3.062938
v -13.912712 79.684975 2.979395
v -13.086946 80.159775 2.803916
v -14.627648 78.931412 3.050763
v -16.634338 73.498657 2.094437
v -16.552475 74.925591 2.477303
v -16.167931 76.035988 2.725830
v -17.188488 69.232964 1.049948
v -16.874050 71.656525 1.614593
v -17.428619 67.743057 0.774973
v -32.291149 63.354786 -1.583939
v -26.792900 62.288048 -1.186380
v -30.441467 63.234718 -1.497459
v -28.852070 62.995430 -1.380331
v -36.203777 64.217911 -1.211148
v -34.292385 63.909775 -1.413917
v -38.417015 64.827057 -0.754395
v -41.945938 66.560036 0.427789
v -40.082401 65.683052 -0.184293
v -49.179264 70.498688 0.445003
v -45.096615 68.309799 0.895038
v -43.492939 67.445419 0.807717
v -46.141518 68.986954 0.875727
v -49.594036 71.323624 0.535681
v -47.723366 70.703140 0.955491
v -46.734711 69.803490 0.960109
v -48.798916 71.271561 0.787149
v -47.013882 66.528969 0.064235
v -48.006317 67.762375 0.172545
v -48.786743 69.144806 0.242234
v -44.500904 63.690636 -0.743480
v -45.927418 64.910187 -0.336264
v -41.234783 58.159218 -3.684669
v -40.680630 56.124817 -4.468034
v -35.339809 35.218285 -1.013840
v -38.333473 45.209339 -4.160735
v -39.001812 47.399910 -4.711105
v -40.309101 51.561066 -5.135953
v -40.906067 53.432999 -4.978105
v -39.791893 49.515751 -5.024703
v -37.940533 43.315998 -3.537318
v -37.959839 37.388283 -1.072194
v -39.343117 40.092278 -1.709045
v -38.780571 41.658588 -2.587288
v -38.939259 38.665764 -1.273283
v -36.683197 36.238419 -1.010482
v -29.050636 30.020617 -1.037769
v -30.478413 30.345129 -0.829963
v -32.925064 32.472305 -0.717035
v -34.333103 33.991600 -0.830383
v -31.504425 30.758642 -0.661621
v -27.080051 28.866978 -1.184284
v -26.236652 27.836346 -1.271184
v -23.492355 20.976648 -2.032721
v -25.445312 25.687336 -1.506697
v -25.932709 26.561800 -1.390831
v -25.394093 24.814972 -1.598216
v -25.549843 22.360764 -1.759844
v -25.487289 23.704994 -1.685537
v -24.376053 21.509808 -1.952957
v -17.926094 18.854090 -1.029794
v -22.483971 20.530811 -2.042796
v -20.499950 19.444344 -1.800986
v -21.476006 19.974142 -1.967230
v -19.312309 19.133682 -1.494943
v -10.901834 17.639999 1.963031
v -15.371131 18.425045 0.015112
v -12.628094 17.380558 1.309386
v -14.093650 17.677784 0.640209
v -5.295693 19.452318 3.152773
v -7.547133 18.210104 2.934890
v -8.992959 17.713890 2.612897
v -6.189468 18.700859 3.144796
v -7.002640 11.680378 4.253093
v -8.799006 6.834511 4.713626
vt 0.5061 0.0210
vt 0.5177 0.0054
vt 0.5262 0.0623
vt 0.5336 0.1725
vt 0.5468 0.2208
vt 0.5378 0.1246
vt 0.5466 0.1753
vt 0.5329 0.2068
vt 0.4157 0.1776
vt 0.8003 0.3528
vt 0.6994 0.2313
vt 0.5576 0.2200
vt 0.6329 0.1977
vt 0.5972 0.1997
vt 0.5740 0.2053
vt 0.5651 0.2116
vt 0.5841 0.2022
vt 0.6101 0.1970
vt 0.6224 0.1943
vt 0.6793 0.2203
vt 0.6590 0.2082
vt 0.6459 0.1997
vt 0.7933 0.3350
vt 0.7943 0.3124
vt 0.7547 0.2610
vt 0.7973 0.2911
vt 0.7192 0.2414
vt 0.7849 0.2774
vt 0.9101 0.5834
vt 0.9110 0.5533
vt 0.8139 0.3701
vt 0.9268 0.5196
vt 0.8436 0.4023
vt 0.8308 0.3874
vt 0.8723 0.4298
vt 0.8851 0.4440
vt 0.8607 0.4175
vt 0.8988 0.4583
vt 0.9177 0.4786
vt 0.9301 0.4986
vt 0.2873 0.2663
vt 0.0978 0.5429
vt 0.2693 0.5852
vt 0.0833 0.5603
vt 0.2857 0.5911
vt 0.3009 0.6007
vt 0.3138 0.6092
vt 0.3257 0.6208
vt 0.7021 0.6617
vt 0.6869 0.6671
vt 0.7163 0.6618
vt 0.8436 0.6912
vt 0.9124 0.6403
vt 0.9058 0.7117
vt 0.9137 0.6133
vt 0.9294 0.6763
vt 0.9298 0.7267
vt 0.9560 0.7081
vt 0.9615 0.7175
vt 0.9700 0.7283
vt 0.9946 0.7495
vt 0.9857 0.7375
vt 0.9945 0.7424
vt 0.9607 0.7413
vt 0.9687 0.7491
vt 0.9512 0.7396
vt 0.8827 0.7050
vt 0.8622 0.6988
vt 0.7342 0.6661
vt 0.8231 0.6865
vt 0.7514 0.6728
vt 0.7642 0.6803
vt 0.8050 0.6854
vt 0.7837 0.6854
vt 0.6732 0.6755
vt 0.4448 0.8715
vt 0.6634 0.6849
vt 0.4472 0.8853
vt 0.4479 0.8929
vt 0.4467 0.9096
vt 0.5084 0.8872
vt 0.4890 0.9052
vt 0.5670 0.8391
vt 0.5860 0.8322
vt 0.6595 0.6978
vt 0.6364 0.7915
vt 0.6483 0.7567
vt 0.6537 0.7360
vt 0.6571 0.7173
vt 0.6522 0.7466
vt 0.6423 0.7812
vt 0.6467 0.7692
vt 0.6100 0.8225
vt 0.6249 0.8115
vt 0.6303 0.8044
vt 0.6178 0.8187
vt 0.5942 0.8291
vt 0.6030 0.8276
vt 0.5781 0.8369
vt 0.5486 0.8588
vt 0.5172 0.8839
vt 0.5624 0.8441
vt 0.5554 0.8536
vt 0.5598 0.8479
vt 0.5368 0.8710
vt 0.5245 0.8814
vt 0.5440 0.8650
vt 0.5313 0.8761
vt 0.4949 0.8998
vt 0.5011 0.8946
vt 0.4848 0.9093
vt 0.4445 0.9282
vt 0.4767 0.9213
vt 0.4726 0.9266
vt 0.4809 0.9152
vt 0.4590 0.9528
vt 0.4338 0.9850
vt 0.4685 0.9362
vt 0.4626 0.9483
vt 0.4710 0.9312
vt 0.4660 0.9417
vt 0.4577 0.9667
vt 0.4475 0.9837
vt 0.4587 0.9601
vt 0.4534 0.9745
vt 0.4424 0.9946
vt 0.4378 0.9946
vt 0.4347 0.9923
vt 0.4364 0.9611
vt 0.4343 0.9771
vt 0.4344 0.9706
vt 0.4401 0.9460
vt 0.4380 0.9538
vt 0.4417 0.9367
vt 0.4454 0.9191
vt 0.4473 0.9011
vt 0.4459 0.8786
vt 0.3307 0.6345
vt 0.4355 0.8581
vt 0.4399 0.8646
vt 0.4049 0.8190
vt 0.4080 0.8255
vt 0.4297 0.8537
vt 0.4086 0.8324
vt 0.4231 0.8491
vt 0.4167 0.8446
vt 0.4102 0.8380
vt 0.3990 0.8133
vt 0.3315 0.7475
vt 0.3829 0.8023
vt 0.3604 0.7864
vt 0.3899 0.8078
vt 0.3677 0.7920
vt 0.3749 0.7975
vt 0.3455 0.7763
vt 0.3333 0.7580
vt 0.3529 0.7823
vt 0.3396 0.7679
vt 0.3283 0.7117
vt 0.3269 0.7257
vt 0.3289 0.7372
vt 0.3288 0.6933
vt 0.3295 0.6691
vt 0.3295 0.6542
vt 0.2453 0.5862
vt 0.1892 0.5879
vt 0.2077 0.5897
vt 0.2238 0.5898
vt 0.1685 0.5902
vt 0.1491 0.5902
vt 0.1263 0.5927
vt 0.0887 0.6041
vt 0.1085 0.5984
vt 0.0548 0.6162
vt 0.0109 0.6311
vt 0.0720 0.6103
vt 0.0434 0.6212
vt 0.0054 0.6385
vt 0.0362 0.6282
vt 0.0250 0.6354
vt 0.0134 0.6393
vt 0.0386 0.5958
vt 0.0268 0.6063
vt 0.0169 0.6185
vt 0.0679 0.5720
vt 0.0519 0.5817
vt 0.1087 0.5231
vt 0.1174 0.5041
vt 0.1580 0.4012
vt 0.2039 0.3084
vt 0.1479 0.4215
vt 0.1283 0.4601
vt 0.1194 0.4775
vt 0.1367 0.4410
vt 0.1650 0.3834
vt 0.1745 0.3255
vt 0.1594 0.3659
vt 0.1565 0.3497
vt 0.1628 0.3364
vt 0.1890 0.3163
vt 0.2744 0.2675
vt 0.2598 0.2685
vt 0.2159 0.2980
vt 0.2322 0.2854
vt 0.2490 0.2709
vt 0.2958 0.2594
vt 0.3057 0.2506
vt 0.3170 0.2309
vt 0.3438 0.1880
vt 0.3108 0.2387
vt 0.3189 0.2225
vt 0.3212 0.1983
vt 0.3197 0.2115
vt 0.3342 0.1918
vt 0.3545 0.1852
vt 0.4023 0.1760
vt 0.3653 0.1814
vt 0.3758 0.1777
vt 0.3881 0.1766
vt 0.4284 0.1759
vt 0.4741 0.1752
vt 0.4423 0.1706
vt 0.4574 0.1700
vt 0.5268 0.2018
vt 0.5065 0.1861
vt 0.4929 0.1790
vt 0.5192 0.1930
vt 0.5224 0.1232
vt 0.5124 0.0731
vt 0.5061 0.0076
vn -0.0178 0.0047 0.9998
vn 0.0059 0.0092 0.9999
vn -0.1111 0.0233 0.9935
vn 0.1722 -0.0604 0.9832
vn -0.0939 0.2899 0.9524
vn -0.1118 0.0268 0.9934
vn 0.1821 -0.0537 0.9818
vn 0.0601 -0.0661 0.9960
vn -0.0238 0.0292 0.9993
vn -0.0310 -0.0036 0.9995
vn 0.0910 -0.3058 0.9477
vn 0.0079 0.3442 0.9389
vn -0.0123 -0.0228 0.9997
vn 0.0034 0.0224 0.9997
vn -0.0605 -0.0699 0.9957
vn -0.0102 0.0005 0.9999
vn -0.0015 0.0657 0.9978
vn -0.0236 -0.0853 0.9961
vn 0.0743 -0.2800 0.9571
vn -0.1102 0.2833 0.9527
vn -0.0279 0.0223 0.9994
vn 0.0083 -0.0202 0.9998
vn -0.0328 0.0244 0.9992
vn 0.0387 -0.0519 0.9979
vn 0.0687 -0.0721 0.9950
vn 0.4088 -0.2945 0.8638
vn -0.3258 0.2281 0.9175
vn 0.0187 -0.0214 0.9996
vn -0.0109 0.0017 0.9999
vn -0.0530 0.0540 0.9971
vn -0.0299 0.0174 0.9994
vn 0.0589 -0.0581 0.9966
vn 0.0019 -0.0077 1.0000
vn -0.0199 0.0071 0.9998
vn 0.0106 0.0101 0.9999
vn -0.0055 -0.1276 0.9918
vn -0.0144 0.0141 0.9998
vn 0.0173 -0.0626 0.9979
vn -0.0252 -0.0934 0.9953
vn -0.0011 0.0594 0.9982
vn -0.0189 -0.0425 0.9989
vn -0.0025 0.0353 0.9994
vn -0.0493 0.0110 0.9987
vn 0.0487 0.7011 0.7114
vn -0.2170 -0.3006 0.9287
vn 0.0139 0.0385 0.9992
vn -0.0418 -0.0317 0.9986
vn 0.0210 0.0314 0.9993
vn -0.0150 -0.0016 0.9999
vn -0.0048 0.0017 1.0000
vn -0.0162 -0.0045 0.9999
vn -0.0160 -0.0047 0.9999
vn -0.0101 0.0004 0.9999
vn -0.0134 0.0064 0.9999
vn -0.0071 -0.0026 1.0000
vn -0.0185 0.0090 0.9998
vn -0.0082 -0.0189 0.9998
vn -0.0152 0.0388 0.9991
vn -0.0175 0.0381 0.9991
vn 0.0004 -0.0561 0.9984
vn -0.0109 -0.0003 0.9999
vn -0.0099 -0.0408 0.9991
vn 0.0060 -0.2623 0.9650
vn -0.0130 0.2612 0.9652
vn -0.0154 -0.5059 0.8625
vn 0.0272 0.4760 0.8790
vn 0.0178 0.3156 0.9487
vn -0.1084 -0.0861 0.9904
vn 0.5738 0.4473 0.6861
vn -0.0094 -0.0040 0.9999
vn -0.0188 -0.0076 0.9998
vn -0.0192 -0.0122 0.9997
vn -0.0062 0.0069 1.0000
vn 0.0144 0.0555 0.9984
vn -0.0166 -0.0029 0.9999
vn -0.0069 0.0002 1.0000
vn 0.4201 0.1487 0.8952
vn -0.0612 -0.0165 0.9980
vn 0.0051 0.0004 1.0000
vn -0.0916 -0.0006 0.9958
vn -0.0141 0.0002 0.9999
vn 0.0001 0.0013 1.0000
vn -0.0207 -0.0042 0.9998
vn 0.0419 0.0320 0.9986
vn -0.1473 -0.2294 0.9621
vn 0.0285 0.0589 0.9979
vn -0.0407 -0.0311 0.9987
vn 0.0753 0.0854 0.9935
vn -0.5620 -0.3977 0.7252
vn 0.0475 0.0378 0.9982
vn -0.0236 -0.0138 0.9996
vn 0.0208 0.0328 0.9992
vn 0.4405 0.3288 0.8354
vn -0.3512 -0.2735 0.8955
vn 0.0026 0.0708 0.9975
vn -0.0212 0.0011 0.9998
vn -0.0094 0.0029 1.0000
vn -0.0285 -0.0041 0.9996
vn -0.0106 0.0003 0.9999
vn -0.0125 -0.0046 0.9999
vn -0.0003 -0.0023 1.0000
vn 0.0642 0.0288 0.9975
vn -0.1227 -0.0415 0.9916
vn -0.0163 -0.0058 0.9998
vn -0.0015 0.0105 0.9999
vn -0.0088 -0.0012 1.0000
vn -0.0050 -0.0059 1.0000
vn -0.0224 0.0021 0.9997
vn 0.2406 -0.0073 0.9706
vn -0.1845 -0.0059 0.9828
vn 0.7982 0.1295 0.5883
vn -0.0103 0.0005 0.9999
vn -0.0102 0.0006 0.9999
vn -0.0003 -0.0059 1.0000
vn -0.0158 0.0082 0.9998
vn -0.0100 0.0001 1.0000
vn 0.0089 -0.0003 1.0000
vn -0.3624 0.2881 0.8864
vn -0.0656 0.0573 0.9962
vn 0.0165 -0.0273 0.9995
vn -0.0282 0.0205 0.9994
vn 0.0102 -0.0226 0.9997
vn 0.1396 -0.0861 0.9865
vn -0.0173 0.0086 0.9998
vn 0.0397 -0.0636 0.9972
vn -0.0546 0.0598 0.9967
vn 0.0334 -0.0939 0.9950
vn -0.0846 0.1457 0.9857
vn -0.0112 0.0012 0.9999
vn -0.0103 0.0006 0.9999
vn -0.0801 0.0188 0.9966
vn 0.3187 -0.0756 0.9448
vn -0.0154 0.0011 0.9999
vn -0.0042 -0.0004 1.0000
vn -0.0088 0.2308 0.9730
vn -0.0136 -0.1194 0.9928
vn -0.0035 0.0259 0.9997
vn -0.0259 -0.0596 0.9979
vn -0.0173 0.0385 0.9991
vn -0.0011 -0.0526 0.9986
vn -0.0155 0.0102 0.9998
vn 0.0677 0.0272 0.9973
vn -0.0532 -0.0268 0.9982
vn 0.0036 0.0665 0.9978
vn -0.1273 -0.2430 0.9616
vn 0.0150 0.0485 0.9987
vn -0.0045 0.0107 0.9999
vn -0.0189 -0.0154 0.9997
vn 0.0354 0.0203 0.9992
vn -0.5396 -0.2828 0.7930
vn 0.3508 0.3827 0.8547
vn -0.5649 -0.3938 0.7251
vn -0.0478 -0.0174 0.9987
vn 0.0664 0.0256 0.9975
vn -0.2053 -0.1339 0.9695
vn 0.2460 0.1658 0.9550
vn -0.1712 -0.0315 0.9847
vn 0.1330 0.0354 0.9905
vn -0.1057 -0.0289 0.9940
vn 0.0014 0.0042 1.0000
vn -0.0236 -0.0032 0.9997
vn 0.0161 0.0070 0.9998
vn -0.0408 -0.0362 0.9985
vn 0.0176 0.0335 0.9993
vn 0.0029 0.0143 0.9999
vn -0.0303 -0.0200 0.9993
vn -0.0306 -0.0207 0.9993
vn 0.0043 0.0145 0.9999
vn -0.0081 0.0069 0.9999
vn -0.0132 -0.0211 0.9997
vn -0.0499 -0.0195 0.9986
vn 0.0039 0.0069 1.0000
vn -0.0783 -0.2620 0.9619
vn 0.0562 0.2189 0.9741
vn -0.0355 -0.0859 0.9957
vn 0.0304 0.1313 0.9909
vn -0.0033 -0.0652 0.9979
vn -0.0135 0.0263 0.9996
vn -0.0091 -0.0163 0.9998
vn -0.0112 0.0557 0.9984
vn -0.0385 0.0878 0.9954
vn 0.0025 -0.0378 0.9993
vn 0.0008 -0.0031 1.0000
vn -0.0289 0.0066 0.9996
vn 0.0363 0.0224 0.9991
usemtl 01___Default
s 1
f 1/1/1 3/2/2 4/3/3
f 5/4/4 4/3/3 6/5/5
f 6/5/5 8/6/6 7/7/7
f 9/8/8 6/5/5 10/9/9
f 11/10/10 6/5/5 12/11/11
f 12/11/11 13/12/12 14/13/13
f 15/14/14 13/12/12 16/15/15
f 13/12/12 17/16/16 16/15/15
f 16/15/15 18/17/16 15/14/14
f 14/13/13 19/18/17 20/19/18
f 21/20/19 14/13/13 22/21/20
f 14/13/13 23/22/16 22/21/20
f 24/23/21 12/11/11 25/24/22
f 25/24/22 27/25/23 26/26/24
f 12/11/11 28/27/16 27/25/23
f 27/25/23 29/28/16 26/26/24
f 30/29/25 11/10/10 31/30/26
f 31/30/26 33/31/27 32/32/28
f 34/33/29 33/31/27 35/34/30
f 32/32/28 37/35/31 36/36/32
f 34/33/29 38/37/16 37/35/31
f 32/32/28 40/38/33 39/39/34
f 39/39/34 41/40/16 32/32/28
f 42/41/35 30/29/25 43/42/36
f 43/42/36 45/43/37 44/44/38
f 46/45/39 30/29/25 47/46/40
f 48/47/41 30/29/25 49/48/42
f 49/48/42 51/49/43 50/50/44
f 52/51/45 30/29/25 53/52/46
f 53/52/46 55/53/47 54/54/48
f 30/29/25 56/55/16 55/53/47
f 54/54/48 58/56/49 57/57/50
f 57/57/50 60/58/51 59/59/52
f 57/57/50 61/60/53 62/61/54
f 62/61/54 63/62/55 64/63/56
f 65/64/57 62/61/54 66/65/58
f 65/64/57 67/66/16 57/57/50
f 53/52/46 69/67/59 68/68/60
f 70/69/61 53/52/46 71/70/62
f 72/71/63 71/70/62 73/72/64
f 73/72/64 74/73/65 75/74/66
f 49/48/42 76/75/67 77/76/68
f 77/76/68 79/77/69 78/78/70
f 80/79/71 79/77/69 81/80/72
f 81/80/72 83/81/73 82/82/74
f 84/83/75 79/77/69 85/84/76
f 85/84/76 86/85/77 87/86/78
f 88/87/79 86/85/77 89/88/80
f 86/85/77 90/89/16 89/88/80
f 89/88/80 91/90/16 88/87/79
f 92/91/81 88/87/79 93/92/82
f 94/93/83 87/86/78 95/94/84
f 87/86/78 96/95/16 95/94/84
f 95/94/84 97/96/16 94/93/83
f 98/97/85 94/93/83 99/98/86
f 85/84/76 100/99/16 84/83/75
f 83/81/73 102/100/87 101/101/88
f 102/100/87 103/102/89 104/103/90
f 103/102/89 105/104/16 104/103/90
f 101/101/88 107/105/91 106/106/92
f 102/100/87 108/107/16 107/105/91
f 107/105/91 109/108/16 106/106/92
f 110/109/93 83/81/73 111/110/94
f 81/80/72 113/111/95 112/112/96
f 112/112/96 115/113/97 114/114/98
f 113/111/95 116/115/99 115/113/97
f 112/112/96 118/116/100 117/117/101
f 118/116/100 120/118/102 119/119/103
f 114/114/98 121/120/16 120/118/102
f 120/118/102 122/121/16 119/119/103
f 117/117/101 124/122/104 123/123/105
f 118/116/100 125/124/16 124/122/104
f 124/122/104 126/125/16 123/123/105
f 117/117/101 128/126/106 127/127/107
f 127/127/107 129/128/16 117/117/101
f 130/129/108 117/117/101 131/130/109
f 131/130/109 132/131/16 130/129/108
f 133/132/110 130/129/108 134/133/111
f 133/132/110 135/134/16 112/112/96
f 112/112/96 136/135/112 81/80/72
f 81/80/72 137/136/16 80/79/71
f 78/78/70 138/137/113 77/76/68
f 139/138/114 77/76/68 140/139/115
f 77/76/68 141/140/116 140/139/115
f 142/141/117 140/139/115 143/142/118
f 143/142/118 145/143/119 144/144/120
f 144/144/120 147/145/121 146/146/122
f 146/146/122 148/147/16 144/144/120
f 139/138/114 150/148/123 149/149/124
f 149/149/124 152/150/125 151/151/126
f 150/148/123 153/152/112 152/150/125
f 154/153/127 152/150/125 155/154/128
f 149/149/124 157/155/16 156/156/129
f 151/151/126 158/157/112 157/155/16
f 157/155/16 159/158/130 156/156/129
f 160/159/131 149/149/124 161/160/132
f 149/149/124 162/161/112 161/160/132
f 139/138/114 164/162/133 163/163/134
f 163/163/134 165/164/16 139/138/114
f 44/44/38 167/165/135 166/166/136
f 168/167/137 167/165/135 169/168/138
f 44/44/38 171/169/139 170/170/140
f 44/44/38 172/171/141 173/172/142
f 172/171/141 174/173/16 173/172/142
f 44/44/38 176/174/143 175/175/144
f 173/172/142 177/176/16 176/174/143
f 175/175/144 178/177/145 179/178/146
f 179/178/146 181/179/147 180/180/148
f 180/180/148 182/181/16 179/178/146
f 183/182/149 175/175/144 184/183/150
f 175/175/144 185/184/16 184/183/150
f 186/185/151 183/182/149 187/186/152
f 42/41/35 188/187/153 189/188/154
f 42/41/35 191/189/155 190/190/156
f 192/191/157 189/188/154 193/192/158
f 189/188/154 194/193/16 193/192/158
f 193/192/158 195/194/16 192/191/157
f 190/190/156 196/195/159 197/196/160
f 197/196/160 199/197/161 198/198/162
f 198/198/162 200/199/16 197/196/160
f 197/196/160 201/200/16 190/190/156
f 202/201/163 190/190/156 203/202/164
f 203/202/164 205/203/165 204/204/166
f 204/204/166 206/205/16 203/202/164
f 10/9/9 207/206/167 208/207/168
f 10/9/9 210/208/169 209/209/170
f 208/207/168 211/210/16 210/208/169
f 209/209/170 212/211/171 213/212/172
f 212/211/171 214/213/16 213/212/172
f 213/212/172 215/214/16 209/209/170
f 10/9/9 217/215/173 216/216/174
f 216/216/174 219/217/175 218/218/176
f 218/218/176 220/219/16 216/216/174
f 9/8/8 222/220/177 221/221/178
f 221/221/178 224/222/179 223/223/180
f 225/224/181 221/221/178 226/225/182
f 221/221/178 227/226/16 226/225/182
f 226/225/182 228/227/16 225/224/181
f 1/1/1 229/228/183 230/229/184
f 1/1/1 2/230/185 3/2/2
f 5/4/4 1/1/1 4/3/3
f 6/5/5 4/3/3 8/6/6
f 9/8/8 5/4/4 6/5/5
f 11/10/10 10/9/9 6/5/5
f 12/11/11 6/5/5 13/12/12
f 15/14/14 14/13/13 13/12/12
f 14/13/13 15/14/14 19/18/17
f 21/20/19 12/11/11 14/13/13
f 24/23/21 11/10/10 12/11/11
f 25/24/22 12/11/11 27/25/23
f 30/29/25 10/9/9 11/10/10
f 31/30/26 11/10/10 33/31/27
f 34/33/29 32/32/28 33/31/27
f 32/32/28 34/33/29 37/35/31
f 32/32/28 36/36/32 40/38/33
f 42/41/35 10/9/9 30/29/25
f 43/42/36 30/29/25 45/43/37
f 46/45/39 45/43/37 30/29/25
f 48/47/41 47/46/40 30/29/25
f 49/48/42 30/29/25 51/49/43
f 52/51/45 51/49/43 30/29/25
f 53/52/46 30/29/25 55/53/47
f 54/54/48 55/53/47 58/56/49
f 57/57/50 58/56/49 60/58/51
f 57/57/50 59/59/52 61/60/53
f 62/61/54 61/60/53 63/62/55
f 65/64/57 57/57/50 62/61/54
f 53/52/46 54/54/48 69/67/59
f 70/69/61 52/51/45 53/52/46
f 72/71/63 70/69/61 71/70/62
f 73/72/64 71/70/62 74/73/65
f 49/48/42 50/50/44 76/75/67
f 77/76/68 76/75/67 79/77/69
f 80/79/71 78/78/70 79/77/69
f 81/80/72 79/77/69 83/81/73
f 84/83/75 83/81/73 79/77/69
f 85/84/76 79/77/69 86/85/77
f 88/87/79 87/86/78 86/85/77
f 92/91/81 87/86/78 88/87/79
f 94/93/83 85/84/76 87/86/78
f 98/97/85 85/84/76 94/93/83
f 83/81/73 84/83/75 102/100/87
f 102/100/87 84/83/75 103/102/89
f 101/101/88 102/100/87 107/105/91
f 110/109/93 82/82/74 83/81/73
f 81/80/72 82/82/74 113/111/95
f 112/112/96 113/111/95 115/113/97
f 112/112/96 114/114/98 118/116/100
f 118/116/100 114/114/98 120/118/102
f 117/117/101 118/116/100 124/122/104
f 117/117/101 123/123/105 128/126/106
f 130/129/108 112/112/96 117/117/101
f 133/132/110 112/112/96 130/129/108
f 139/138/114 49/48/42 77/76/68
f 142/141/117 139/138/114 140/139/115
f 143/142/118 140/139/115 145/143/119
f 144/144/120 145/143/119 147/145/121
f 139/138/114 142/141/117 150/148/123
f 149/149/124 150/148/123 152/150/125
f 154/153/127 151/151/126 152/150/125
f 149/149/124 151/151/126 157/155/16
f 160/159/131 139/138/114 149/149/124
f 139/138/114 160/159/131 164/162/133
f 44/44/38 45/43/37 167/165/135
f 168/167/137 166/166/136 167/165/135
f 44/44/38 166/166/136 171/169/139
f 44/44/38 170/170/140 172/171/141
f 44/44/38 173/172/142 176/174/143
f 175/175/144 176/174/143 178/177/145
f 179/178/146 178/177/145 181/179/147
f 183/182/149 44/44/38 175/175/144
f 186/185/151 44/44/38 183/182/149
f 42/41/35 43/42/36 188/187/153
f 42/41/35 189/188/154 191/189/155
f 192/191/157 191/189/155 189/188/154
f 190/190/156 191/189/155 196/195/159
f 197/196/160 196/195/159 199/197/161
f 202/201/163 42/41/35 190/190/156
f 203/202/164 190/190/156 205/203/165
f 10/9/9 42/41/35 207/206/167
f 10/9/9 208/207/168 210/208/169
f 209/209/170 210/208/169 212/211/171
f 10/9/9 209/209/170 217/215/173
f 216/216/174 217/215/173 219/217/175
f 9/8/8 10/9/9 222/220/177
f 221/221/178 222/220/177 224/222/179
f 225/224/181 9/8/8 221/221/178
f 1/1/1 5/4/4 229/228/183
